<svg width="827" height="177" viewBox="0 0 827 177" fill="none" xmlns="http://www.w3.org/2000/svg">
<path d="M11.019 145V55.4H51.723C61.451 55.4 70.027 57.2773 77.451 61.032C84.875 64.7013 90.6777 69.864 94.859 76.52C99.0403 83.176 101.131 91.0693 101.131 100.2C101.131 109.245 99.0403 117.139 94.859 123.88C90.6777 130.536 84.875 135.741 77.451 139.496C70.027 143.165 61.451 145 51.723 145H11.019ZM31.755 127.976H50.699C56.6723 127.976 61.835 126.867 66.187 124.648C70.6243 122.344 74.0377 119.101 76.427 114.92C78.9017 110.739 80.139 105.832 80.139 100.2C80.139 94.4827 78.9017 89.576 76.427 85.48C74.0377 81.2987 70.6243 78.0987 66.187 75.88C61.835 73.576 56.6723 72.424 50.699 72.424H31.755V127.976ZM162.721 145V131.56L161.441 128.616V104.552C161.441 100.285 160.118 96.9573 157.473 94.568C154.913 92.1787 150.945 90.984 145.569 90.984C141.9 90.984 138.273 91.5813 134.689 92.776C131.19 93.8853 128.204 95.4213 125.729 97.384L118.561 83.432C122.316 80.7867 126.838 78.7387 132.129 77.288C137.42 75.8373 142.796 75.112 148.257 75.112C158.753 75.112 166.902 77.5867 172.705 82.536C178.508 87.4853 181.409 95.208 181.409 105.704V145H162.721ZM141.729 146.024C136.353 146.024 131.745 145.128 127.905 143.336C124.065 141.459 121.121 138.941 119.073 135.784C117.025 132.627 116.001 129.085 116.001 125.16C116.001 121.064 116.982 117.48 118.945 114.408C120.993 111.336 124.193 108.947 128.545 107.24C132.897 105.448 138.572 104.552 145.569 104.552H163.873V116.2H147.745C143.052 116.2 139.809 116.968 138.017 118.504C136.31 120.04 135.457 121.96 135.457 124.264C135.457 126.824 136.438 128.872 138.401 130.408C140.449 131.859 143.222 132.584 146.721 132.584C150.049 132.584 153.036 131.816 155.681 130.28C158.326 128.659 160.246 126.312 161.441 123.24L164.513 132.456C163.062 136.893 160.417 140.264 156.577 142.568C152.737 144.872 147.788 146.024 141.729 146.024ZM232.761 146.024C224.654 146.024 218.34 143.976 213.817 139.88C209.294 135.699 207.033 129.512 207.033 121.32V60.904H227.001V121.064C227.001 123.965 227.769 126.227 229.305 127.848C230.841 129.384 232.932 130.152 235.577 130.152C238.734 130.152 241.422 129.299 243.641 127.592L249.017 141.672C246.969 143.123 244.494 144.232 241.593 145C238.777 145.683 235.833 146.024 232.761 146.024ZM196.409 93.032V77.672H244.153V93.032H196.409ZM307.586 145V131.56L306.306 128.616V104.552C306.306 100.285 304.983 96.9573 302.338 94.568C299.778 92.1787 295.81 90.984 290.434 90.984C286.765 90.984 283.138 91.5813 279.554 92.776C276.055 93.8853 273.069 95.4213 270.594 97.384L263.426 83.432C267.181 80.7867 271.703 78.7387 276.994 77.288C282.285 75.8373 287.661 75.112 293.122 75.112C303.618 75.112 311.767 77.5867 317.57 82.536C323.373 87.4853 326.274 95.208 326.274 105.704V145H307.586ZM286.594 146.024C281.218 146.024 276.61 145.128 272.77 143.336C268.93 141.459 265.986 138.941 263.938 135.784C261.89 132.627 260.866 129.085 260.866 125.16C260.866 121.064 261.847 117.48 263.81 114.408C265.858 111.336 269.058 108.947 273.41 107.24C277.762 105.448 283.437 104.552 290.434 104.552H308.738V116.2H292.61C287.917 116.2 284.674 116.968 282.882 118.504C281.175 120.04 280.322 121.96 280.322 124.264C280.322 126.824 281.303 128.872 283.266 130.408C285.314 131.859 288.087 132.584 291.586 132.584C294.914 132.584 297.901 131.816 300.546 130.28C303.191 128.659 305.111 126.312 306.306 123.24L309.378 132.456C307.927 136.893 305.282 140.264 301.442 142.568C297.602 144.872 292.653 146.024 286.594 146.024ZM511.642 146.024C505.925 146.024 500.805 144.915 496.282 142.696C491.845 140.477 488.389 137.107 485.914 132.584C483.439 127.976 482.202 122.131 482.202 115.048V76.136H502.17V112.104C502.17 117.821 503.365 122.045 505.754 124.776C508.229 127.421 511.685 128.744 516.122 128.744C519.194 128.744 521.925 128.104 524.314 126.824C526.703 125.459 528.581 123.411 529.946 120.68C531.311 117.864 531.994 114.365 531.994 110.184V76.136H551.962V145H533.018V126.056L536.474 131.56C534.17 136.339 530.757 139.965 526.234 142.44C521.797 144.829 516.933 146.024 511.642 146.024ZM609.757 146.024C601.906 146.024 594.994 144.488 589.021 141.416C583.133 138.344 578.568 134.163 575.325 128.872C572.082 123.496 570.461 117.395 570.461 110.568C570.461 103.656 572.04 97.5547 575.197 92.264C578.44 86.888 582.834 82.7067 588.381 79.72C593.928 76.648 600.2 75.112 607.197 75.112C613.938 75.112 619.997 76.5627 625.373 79.464C630.834 82.28 635.144 86.376 638.301 91.752C641.458 97.0427 643.037 103.4 643.037 110.824C643.037 111.592 642.994 112.488 642.909 113.512C642.824 114.451 642.738 115.347 642.653 116.2H586.717V104.552H632.157L624.477 108.008C624.477 104.424 623.752 101.309 622.301 98.664C620.85 96.0187 618.845 93.9707 616.285 92.52C613.725 90.984 610.738 90.216 607.325 90.216C603.912 90.216 600.882 90.984 598.237 92.52C595.677 93.9707 593.672 96.0613 592.221 98.792C590.77 101.437 590.045 104.595 590.045 108.264V111.336C590.045 115.091 590.856 118.419 592.477 121.32C594.184 124.136 596.53 126.312 599.517 127.848C602.589 129.299 606.173 130.024 610.269 130.024C613.938 130.024 617.138 129.469 619.869 128.36C622.685 127.251 625.245 125.587 627.549 123.368L638.173 134.888C635.016 138.472 631.048 141.245 626.269 143.208C621.49 145.085 615.986 146.024 609.757 146.024ZM695.627 146.024C687.776 146.024 680.864 144.488 674.891 141.416C669.003 138.344 664.438 134.163 661.195 128.872C657.952 123.496 656.331 117.395 656.331 110.568C656.331 103.656 657.91 97.5547 661.067 92.264C664.31 86.888 668.704 82.7067 674.251 79.72C679.798 76.648 686.07 75.112 693.067 75.112C699.808 75.112 705.867 76.5627 711.243 79.464C716.704 82.28 721.014 86.376 724.171 91.752C727.328 97.0427 728.907 103.4 728.907 110.824C728.907 111.592 728.864 112.488 728.779 113.512C728.694 114.451 728.608 115.347 728.523 116.2H672.587V104.552H718.027L710.347 108.008C710.347 104.424 709.622 101.309 708.171 98.664C706.72 96.0187 704.715 93.9707 702.155 92.52C699.595 90.984 696.608 90.216 693.195 90.216C689.782 90.216 686.752 90.984 684.107 92.52C681.547 93.9707 679.542 96.0613 678.091 98.792C676.64 101.437 675.915 104.595 675.915 108.264V111.336C675.915 115.091 676.726 118.419 678.347 121.32C680.054 124.136 682.4 126.312 685.387 127.848C688.459 129.299 692.043 130.024 696.139 130.024C699.808 130.024 703.008 129.469 705.739 128.36C708.555 127.251 711.115 125.587 713.419 123.368L724.043 134.888C720.886 138.472 716.918 141.245 712.139 143.208C707.36 145.085 701.856 146.024 695.627 146.024ZM789.177 75.112C794.638 75.112 799.502 76.2213 803.769 78.44C808.121 80.5733 811.534 83.9013 814.009 88.424C816.484 92.8613 817.721 98.5787 817.721 105.576V145H797.753V108.648C797.753 103.101 796.516 99.0053 794.041 96.36C791.652 93.7147 788.238 92.392 783.801 92.392C780.644 92.392 777.785 93.0747 775.225 94.44C772.75 95.72 770.788 97.7253 769.337 100.456C767.972 103.187 767.289 106.685 767.289 110.952V145H747.321V76.136H766.393V95.208L762.809 89.448C765.284 84.84 768.825 81.2987 773.433 78.824C778.041 76.3493 783.289 75.112 789.177 75.112Z" fill="#7C4C88"/>
<path d="M406.5 24.1674C408.858 24.1674 411.163 23.4587 413.123 22.131C415.084 20.8032 416.612 18.916 417.514 16.7079C418.417 14.4999 418.653 12.0703 418.193 9.7263C417.733 7.38229 416.597 5.22918 414.93 3.53924C413.263 1.8493 411.138 0.698443 408.826 0.23219C406.513 -0.234062 404.116 0.00523574 401.938 0.919823C399.759 1.83441 397.897 3.38321 396.587 5.37036C395.277 7.35752 394.578 9.69378 394.578 12.0837C394.578 15.2885 395.834 18.3621 398.07 20.6282C400.306 22.8943 403.338 24.1674 406.5 24.1674ZM459.482 39.7381L453.413 36.3029C451.829 35.224 449.813 35.7721 448.667 37.3128C447.526 38.8609 445.978 40.0514 444.199 40.7472C442.42 41.4431 440.484 41.6161 438.613 41.2464C433.686 40.3207 430.344 35.5887 430.344 30.5114C430.344 29.7445 430.043 29.0091 429.508 28.4668C428.973 27.9246 428.248 27.6199 427.491 27.6199H419.237C417.96 27.6199 416.766 28.483 416.5 29.7583C416.016 32.0837 414.759 34.1699 412.938 35.6672C411.118 37.1645 408.845 37.9816 406.5 37.9816C404.155 37.9816 401.882 37.1645 400.062 35.6672C398.241 34.1699 396.984 32.0837 396.5 29.7583C396.234 28.4809 395.049 27.6199 393.763 27.6199H385.509C384.752 27.6199 384.027 27.9246 383.492 28.4668C382.957 29.0091 382.656 29.7445 382.656 30.5114C382.656 36.0548 378.611 41.0307 373.146 41.4061C371.448 41.5275 369.747 41.2124 368.201 40.49C366.656 39.7677 365.315 38.6615 364.303 37.2739C363.179 35.7441 361.167 35.2348 359.6 36.2943L353.518 39.7468C352.827 40.2134 352.328 40.9198 352.114 41.7332C351.901 42.5466 351.988 43.411 352.36 44.1638L374.192 73.3407C374.192 73.3407 386.892 60.7208 406.5 60.9118C426.108 61.1027 438.808 73.3407 438.808 73.3407L460.64 44.1552C461.012 43.4024 461.099 42.538 460.886 41.7246C460.672 40.9112 460.173 40.2048 459.482 39.7381Z" fill="#7C4C88"/>
<path d="M386.446 147.167L386.444 147.166C380.363 144.821 375.059 141.517 370.535 137.255L370.533 137.252C366.097 132.99 362.618 127.989 360.097 122.251L360.095 122.247C357.658 116.503 356.442 110.241 356.442 103.467C356.442 96.6924 357.658 90.4307 360.095 84.6865L360.097 84.6818L360.097 84.6818C362.619 78.9424 366.142 73.9403 370.665 69.6783C375.188 65.4161 380.492 62.1126 386.574 59.7669C392.659 57.4196 399.261 56.2481 406.376 56.2481C413.576 56.2481 420.179 57.4193 426.18 59.7674C432.26 62.1128 437.521 65.4159 441.959 69.6782C446.482 73.8544 450.005 78.8136 452.526 84.5524C455.051 90.2985 456.311 96.605 456.311 103.467C456.311 110.243 455.051 116.548 452.527 122.379L452.526 122.381C450.005 128.12 446.481 133.122 441.959 137.384L441.958 137.384C437.521 141.561 432.26 144.821 426.18 147.166M386.446 147.167L423.984 147.541C424.675 147.307 425.359 147.058 426.035 146.793L426.179 147.166C426.179 147.166 426.18 147.166 426.18 147.166M386.446 147.167C390.406 148.673 394.56 149.695 398.909 150.234M386.446 147.167L398.909 150.234M426.18 147.166C425.558 147.409 424.929 147.64 424.293 147.859C424.537 148.107 424.779 148.345 425.018 148.573C426.978 150.448 428.834 151.751 430.587 152.503C432.434 153.258 434.365 153.636 436.382 153.636C441.777 153.636 446.591 151.449 450.837 147.033L451.146 146.712L451.432 147.054L460.744 158.176L460.958 158.431L460.746 158.688C454.543 166.201 446.279 169.956 435.994 169.956C432.429 169.956 429.034 169.565 425.811 168.78L425.809 168.78C422.667 167.994 419.531 166.73 416.399 164.991L416.395 164.988C413.349 163.248 410.137 160.903 406.76 157.959L406.756 157.955C404.306 155.763 401.69 153.189 398.909 150.234M426.18 147.166L398.909 150.234M417.35 129.996L417.347 129.998C414.038 131.355 410.383 132.037 406.376 132.037C402.37 132.037 398.67 131.355 395.273 129.996C391.875 128.637 388.903 126.685 386.356 124.138C383.895 121.592 381.941 118.576 380.493 115.088C379.134 111.518 378.452 107.645 378.452 103.467C378.452 99.2002 379.135 95.3285 380.493 91.8467C381.94 88.3577 383.895 85.342 386.356 82.7951C388.904 80.2485 391.875 78.2961 395.273 76.9368C398.67 75.5778 402.37 74.896 406.376 74.896C410.383 74.896 414.038 75.5778 417.347 76.9355L417.35 76.9368C420.75 78.2965 423.722 80.2498 426.269 82.7975C428.815 85.3436 430.769 88.3572 432.129 91.8427L432.129 91.8428L432.132 91.8505C433.575 95.3313 434.3 99.2015 434.3 103.467C434.3 107.644 433.576 111.516 432.131 115.086L432.129 115.091C430.769 118.576 428.815 121.59 426.269 124.136C423.722 126.683 420.75 128.637 417.35 129.996Z" fill="#7C4C88" stroke="white" stroke-width="0.8"/>
</svg>
