<svg width="20" height="29" viewBox="0 0 20 29" fill="none" xmlns="http://www.w3.org/2000/svg">
<path d="M9.1001 3.99095C9.48948 3.99095 9.87012 3.87392 10.1939 3.65465C10.5176 3.43539 10.77 3.12374 10.919 2.75911C11.068 2.39449 11.107 1.99326 11.031 1.60618C10.9551 1.21909 10.7676 0.863534 10.4922 0.584462C10.2169 0.30539 9.86609 0.115339 9.48418 0.0383434C9.10228 -0.0386525 8.70643 0.000864618 8.34669 0.151897C7.98694 0.30293 7.67947 0.558695 7.46314 0.886849C7.24681 1.215 7.13134 1.60081 7.13134 1.99548C7.13134 2.52471 7.33876 3.03227 7.70798 3.40649C8.07719 3.78071 8.57795 3.99095 9.1001 3.99095ZM17.8495 6.56226L16.8472 5.99498C16.5856 5.81681 16.2527 5.90732 16.0635 6.16174C15.8751 6.4174 15.6193 6.61399 15.3256 6.7289C15.0319 6.84381 14.7121 6.87238 14.4031 6.81134C13.5896 6.65847 13.0376 5.87703 13.0376 5.03857C13.0376 4.91194 12.988 4.79049 12.8996 4.70094C12.8113 4.61139 12.6915 4.56109 12.5665 4.56109H11.2035C10.9926 4.56109 10.7953 4.70362 10.7514 4.91421C10.6716 5.29822 10.464 5.64274 10.1633 5.89C9.86267 6.13725 9.48727 6.27219 9.1001 6.27219C8.71292 6.27219 8.33753 6.13725 8.03687 5.89C7.73621 5.64274 7.52858 5.29822 7.4488 4.91421C7.40486 4.70326 7.20903 4.56109 6.99669 4.56109H5.63368C5.50873 4.56109 5.38891 4.61139 5.30056 4.70094C5.21221 4.79049 5.16258 4.91194 5.16258 5.03857C5.16258 5.954 4.49461 6.77571 3.59214 6.83771C3.31173 6.85775 3.03086 6.80571 2.77557 6.68643C2.52028 6.56714 2.29883 6.38446 2.13174 6.15533C1.94612 5.90269 1.61389 5.81859 1.35514 5.99355L0.350719 6.56369C0.236602 6.64075 0.154187 6.75741 0.118968 6.89173C0.083749 7.02605 0.0981516 7.16879 0.159468 7.2931L3.76476 12.1113C3.76476 12.1113 5.86215 10.0273 9.1001 10.0588C12.338 10.0904 14.4354 12.1113 14.4354 12.1113L18.0407 7.29168C18.102 7.16736 18.1164 7.02463 18.0812 6.8903C18.046 6.75598 17.9636 6.63932 17.8495 6.56226Z" fill="#7C4C88"/>
<path d="M5.66799 24.6143L5.66976 24.6149C6.3132 24.8596 6.98539 25.0294 7.68552 25.125C8.11975 25.5826 8.53119 25.9855 8.91974 26.3332L8.91972 26.3332L8.92361 26.3366C9.49352 26.8335 10.0418 27.2348 10.5685 27.5357L10.5685 27.5357L10.5727 27.5381C11.1125 27.838 11.6576 28.0583 12.2077 28.1959L12.2101 28.1965C12.7702 28.3327 13.3574 28.4 13.9706 28.4C15.7621 28.4 17.2238 27.7404 18.3157 26.4179L18.5274 26.1615L18.3139 25.9065L16.7761 24.0697L16.49 23.728L16.1811 24.0492C15.5341 24.7222 14.8228 25.0371 14.0347 25.0371C13.7455 25.0371 13.4705 24.9833 13.2068 24.8759C13.0413 24.8046 12.8605 24.6936 12.6648 24.5366C13.6249 24.1414 14.4662 23.6065 15.1845 22.9305L15.1847 22.9303C15.9645 22.1955 16.5722 21.3324 17.0065 20.344L17.0074 20.342C17.4435 19.3345 17.6597 18.2477 17.6597 17.0862C17.6597 15.9113 17.4438 14.8236 17.0065 13.8284C16.5724 12.8405 15.9648 11.9843 15.1846 11.2633C14.4186 10.5282 13.5124 9.96038 12.4709 9.55852C11.437 9.15408 10.305 8.95471 9.07967 8.95471C7.86748 8.95471 6.73606 9.15443 5.68935 9.55816L5.8317 9.92722L5.68935 9.55816C4.64675 9.96031 3.73333 10.5284 2.95333 11.2634C2.17352 11.9983 1.56577 12.8614 1.13147 13.8498L1.13144 13.8498L1.12944 13.8545C0.708018 14.8478 0.499658 15.9267 0.499658 17.0862C0.499658 18.2457 0.708018 19.3246 1.12944 20.3179L1.12941 20.318L1.13147 20.3226C1.56503 21.3094 2.16451 22.1716 2.92916 22.9063L2.93197 22.909C3.71198 23.644 4.62539 24.2121 5.66799 24.6143ZM10.7679 21.1572L10.7679 21.1572L10.7646 21.1585C10.2627 21.3644 9.70279 21.4703 9.07967 21.4703C8.4567 21.4703 7.88826 21.3645 7.3701 21.1572C6.85113 20.9496 6.39945 20.6528 6.01174 20.2657C5.63824 19.8787 5.33914 19.4189 5.11578 18.8819C4.90815 18.3348 4.80233 17.7375 4.80233 17.0862C4.80233 16.419 4.90872 15.8226 5.11516 15.292C5.33859 14.7544 5.6379 14.2941 6.01175 13.9067C6.39946 13.5196 6.85113 13.2228 7.3701 13.0152C7.88826 12.8079 8.4567 12.7021 9.07967 12.7021C9.70279 12.7021 10.2627 12.808 10.7646 13.0139L10.7646 13.0139L10.7679 13.0152C11.2879 13.2232 11.7404 13.5208 12.1286 13.9091C12.5152 14.2957 12.8128 14.7538 13.0213 15.2881L13.0212 15.2881L13.0244 15.2959C13.244 15.8253 13.357 16.4202 13.357 17.0862C13.357 17.7367 13.2444 18.3331 13.0232 18.8797L13.0231 18.8797L13.0213 18.8843C12.8128 19.4186 12.5152 19.8767 12.1286 20.2633C11.7404 20.6516 11.2879 20.9492 10.7679 21.1572Z" fill="#7C4C88" stroke="white" stroke-width="0.8"/>
</svg>
